<svg xmlns="http://www.w3.org/2000/svg" viewBox="0 0 100 100"><g id="b6ca5021-750d-4d33-8f0f-1391a50c4cd3" data-name="Layer 2"><g id="aa03ac01-cf48-4b43-9702-5deb613b5016" data-name="HTML 5"><circle id="e1f70042-00eb-49b9-903d-3e2945952647" data-name="Ellipse" cx="50" cy="50" r="50" fill="#ebebeb"/><path id="b7823a0f-6c1a-4ccb-9972-aaba5e3dcd1e" data-name="outer" d="M30.1,74.2,25.7,24.8H74.2L69.8,74.2,49.9,79.8" fill="#e34f26"/><path id="b156c00b-9a42-422e-9ea8-1c6d5e98f9aa" data-name="inner" d="M50,75.5,66,71l3.8-42.3H50" fill="#ef652a"/><g id="b0b4b85c-400a-4e0d-95d0-273e47f2631c" data-name="five"><path d="M50,47.1H42l-.6-6.2H50V34.8H34.8v1.7l1.5,16.7H50Zm0,15.8h-.1l-6.8-1.8-.4-4.9h-6l.8,9.6,12.4,3.4H50Z" fill="#ebebeb"/><path d="M49.9,47.1v6.1h7.5l-.7,7.9-6.8,1.8v6.3l12.5-3.4V64.7l1.4-16,.2-1.6H49.9Zm0-12.3v6.1H64.6V39.6l.4-3.1V34.8Z" fill="#fff"/></g></g></g></svg>