<?xml version="1.0" encoding="UTF-8"?><svg id="uuid-527a6aaf-1b9e-427e-970c-aa52e7821d3d" xmlns="http://www.w3.org/2000/svg" viewBox="0 0 100 100"><g id="uuid-29318fbf-2000-44bf-9c32-371943c3f497"><circle cx="50" cy="50" r="50" fill="#ebebeb"/></g><g id="uuid-be327ebd-d035-468b-8b41-be0ca69c065b"><g id="uuid-547b541e-0998-41b9-accc-d055b7628b87"><path d="M55.6,24.8c-2.7-3.2-5.1-6.5-5.6-7.2,0,0-.1,0-.1,0,0,0,0,0,0,0-.5,.7-2.8,4-5.6,7.2-23.4,29.9,3.7,50,3.7,50l.2,.2c.2,3.1,.7,7.6,.7,7.6h2s.5-4.5,.7-7.6l.2-.2s27.1-20.1,3.7-50Zm-5.7,49.6h0s-1.2-1-1.5-1.6h0l1.5-32.6s0,0,0,0c0,0,0,0,0,0l1.5,32.5h0c-.3,.6-1.5,1.6-1.5,1.6Z" fill="#00684a"/></g></g></svg>